<?xml version="1.0" encoding="utf-8"?>
<!-- Generator: Adobe Illustrator 23.0.1, SVG Export Plug-In . SVG Version: 6.00 Build 0)  -->
<svg version="1.1" id="Layer_1" xmlns="http://www.w3.org/2000/svg" xmlns:xlink="http://www.w3.org/1999/xlink" x="0px" y="0px"
	 viewBox="0 0 383 463" style="enable-background:new 0 0 383 463;" xml:space="preserve">
<style type="text/css">
	.st0{fill:#EAEAEA;}
	.st1{fill:#CCCCCC;}
	.st2{fill:none;stroke:#5B5B5B;stroke-width:2;stroke-linecap:round;stroke-linejoin:round;}
</style>
<g>
	<g>
		<path class="st0" d="M190.5,395.9l-9.4-43.6c-0.7-3.3-2.1-4.9-4.1-4.8c-1.9,0-3.8,1.6-5.7,4.8l-23,38c-1.8,3-3.1,6.6-4,10.9
			c-0.8,4.2-0.8,7.8-0.1,10.6l10.7,42.1c0.8,3,2.1,4.4,4,4.1c1.8-0.2,3.7-1.8,5.6-5l21.9-36.6c1.7-2.9,2.9-6.3,3.8-10.3
			C190.9,402.2,191,398.8,190.5,395.9 M227.6,335c-1.3,0.2-2.5,1.5-3.6,3.7l-11.5,25.4c-0.9,1.9-1.4,4.2-1.6,6.9
			c-0.2,2.6,0.1,4.8,0.9,6.4v0l10.4,24.5c0.8,1.8,1.9,2.5,3.4,2.1c1.3-0.3,2.4-1.5,3.3-3.6l11.1-24.5c0.9-1.9,1.4-4.1,1.6-6.6
			c0.2-2.7,0-4.9-0.6-6.5v0.1l-9.9-25.2l-0.1,0C230,335.6,228.9,334.7,227.6,335 M134.7,327.9c-1.3-0.7-2.9,0-4.9,2.2l-22.8,23.6
			c-1.8,1.9-3.4,4.4-4.8,7.4c-1.4,3.1-2.2,5.9-2.4,8.3l-2.6,36.8v0.1c-0.2,2.7,0.4,4.2,1.9,4.5c1.4,0.4,3-0.4,5-2.5l22.3-23.7
			c1.6-1.9,3.1-4.3,4.5-7.3c1.4-3,2.2-5.7,2.4-8l3-36.6C136.6,329.8,136,328.2,134.7,327.9 M96.2,266.7c1.6-1.4,2.3-2.6,1.8-3.7
			c-0.3-1.1-1.5-1.5-3.6-1.3l-27.1,0.8c-1.7,0-3.7,0.5-6,1.5c-2.2,0.9-4,1.9-5.5,3.1v0.1l-18.3,15.5c-1.7,1.4-2.3,2.7-2,3.8l-0.1,0
			c0.2,1.2,1.3,1.7,3.5,1.6l27.1-0.6c1.8,0,3.9-0.5,6.2-1.5c2.3-1,4.2-2.1,5.7-3.3L96.2,266.7 M95.3,227c0.2-1.6-0.9-2.8-3.4-3.5
			l-32-8.7l-7.4-0.2c-3,0.5-5.6,1.3-7.8,2.4h0.1l-28.1,15c-2.4,1.2-3.7,2.5-3.9,4v0.1c-0.3,1.5,0.6,2.7,2.9,3.4l30.4,9.6l7.9,0.5
			c3.2-0.5,5.9-1.4,8.2-2.7l29.2-15.7C94,229.9,95.3,228.4,95.3,227 M63.5,190.5l17.4,8.8c1.2,0.6,2.8,0.9,4.8,0.8
			c1.9,0,3.6-0.3,5.3-0.8l19-7.6c1.7-0.7,2.6-1.6,2.9-2.6c0.4-1.2-0.2-2.1-1.8-2.8L92.9,178c-1.2-0.6-2.7-0.8-4.7-0.8h-0.1l-4.8,0.9
			l-18.7,7.5c-1.6,0.6-2.6,1.4-2.8,2.3C61.4,189,62,189.8,63.5,190.5 M206,136.8c-10,0.3-20,2.5-30,6.6c-10.2,4.2-19.5,10-28.1,17.6
			c-17,14.6-28.9,33.1-35.5,55.6c-7,23.1-6.6,44.9,1.1,65.4c4,10.8,10,20.1,18,28.1c8.1,7.9,17.3,13.6,27.5,16.9
			c11.5,3.7,23.4,4.4,35.8,2.2c13.1-2.3,25.7-7.8,37.9-16.5c12.4-8.7,22.8-19.7,31.1-33c8.2-13.1,13.6-27,16.3-41.6
			c2.6-14.1,2.4-27.9-0.6-41.2c-2.9-13.5-8.2-24.9-16-34.3C248.9,144.7,229.8,136.1,206,136.8 M177.5,158.3
			c8.1-3.2,16.2-4.8,24.4-4.8c18.9,0,34,7.4,45.1,22.1c2.2,2.9,4.1,6,5.8,9.3l0.1,0.1l4.1,10.2v0.1c0.8,2.4,1.4,5,2,7.8
			c2,10.5,1.8,21.3-0.4,32.3c-2.2,11.4-6.4,22.2-12.6,32.3v0c-6.4,10.3-14.4,18.9-24,25.9c-9.5,6.8-19.3,11.2-29.5,13.3
			c-9.6,2-19.1,1.8-28.3-0.7c-8.4-2.4-15.9-6.6-22.4-12.6h-0.1c-2.8-2.6-5.3-5.5-7.5-8.7l-5.3-8.6h-0.1l-2.1-4.8
			c-6.7-16.4-7.3-34.2-1.7-53.3c5.3-18.5,15-33.7,29.2-45.8C161.3,166.3,169.1,161.6,177.5,158.3 M201.8,153.5
			c-8.1,0-16.3,1.6-24.4,4.8c-8.4,3.2-16.1,7.9-23.3,14.1c-14.1,12-23.8,27.3-29.2,45.8c-5.6,19.1-5,36.9,1.7,53.3l2.1,4.8h0.1
			l5.3,8.6c2.2,3.2,4.7,6.1,7.5,8.7h0.1c6.5,6,14,10.2,22.4,12.6c9.2,2.5,18.6,2.7,28.3,0.7c10.2-2.1,20-6.5,29.5-13.3
			c9.6-6.9,17.6-15.5,24-25.9v0c6.3-10.1,10.5-20.9,12.6-32.3c2.2-11,2.4-21.8,0.4-32.3c-0.6-2.7-1.2-5.3-2-7.8v-0.1l-4.1-10.2
			l-0.1-0.1c-1.7-3.3-3.6-6.4-5.8-9.3C235.8,160.9,220.7,153.5,201.8,153.5 M177.9,159.5c8-3.2,16-4.8,23.9-4.8
			c18.5,0,33.2,7.2,44.1,21.6c2.2,2.9,4.1,5.9,5.8,9.1v0.1l4,10.1v0.1l0.1,0.2l1.6,7c1.9,10.3,1.8,20.9-0.3,31.8
			c-2.2,11.2-6.4,21.8-12.5,31.8c-6.4,10.2-14.4,18.8-23.9,25.6c-9.3,6.7-18.9,11.1-28.9,13.1c-9.5,2-18.8,1.8-27.8-0.8
			c-8.1-2.3-15.4-6.5-21.9-12.4c-2.6-2.4-5-5.1-7.2-7.9l-5.1-8.6v0.1l-2.1-4.7c-6.6-16.2-7.2-33.7-1.7-52.4
			c5.3-18.2,14.9-33.3,28.8-45.2C162,167.3,169.7,162.7,177.9,159.5 M239.6,224.2l-0.1-0.4l-0.4-0.3l-0.4,0.1
			c-10.1,6.5-20.1,10.8-30,12.9c-8.2,1.8-14.6,1.6-19.3-0.4c-4.4-1.9-6.5-5.2-6.2-9.9c0.2-2.2,0.9-4.4,2.2-6.4l0.1-0.4l-0.1-0.3
			l-0.3-0.2h-0.3c-5.5,1.9-8.5,6-9.1,12.2c-0.5,6.3,2.4,10.8,8.8,13.5c6.1,2.8,14.1,3.2,24.2,1.1c7.3-1.6,14.5-4.3,21.8-8.1
			l-3.2,37.8l0.2,0.5l0.3,0.3l0.4-0.1l7.9-4.1l0.2-0.2l0.1-0.3L239.6,224.2 M231.2,235.9l-0.4,0.1c-7.5,4-14.9,6.8-22.4,8.5
			c-9.7,2-17.6,1.6-23.5-1c-5.8-2.5-8.4-6.5-8-12.2c0.4-5,2.6-8.6,6.6-10.6c-0.8,1.7-1.3,3.5-1.5,5.4v0c-0.4,5.2,1.8,8.9,6.8,11.1
			c4.9,2.3,11.6,2.5,20.1,0.6c9.7-2,19.5-6.2,29.4-12.4l-3.1,45.7c-2.2,1.1-4.4,2.2-6.6,3.4l3.1-37.9l-0.2-0.5
			C231.4,236,231.3,236,231.2,235.9 M230.8,236l0.4-0.1c0.2,0,0.3,0.1,0.3,0.2l0.2,0.5l-3.1,37.9c2.2-1.2,4.4-2.3,6.6-3.4l3.1-45.7
			c-9.9,6.2-19.7,10.4-29.4,12.4c-8.5,1.9-15.2,1.7-20.1-0.6c-5-2.1-7.2-5.8-6.8-11.1v0c0.2-1.8,0.7-3.6,1.5-5.4
			c-4,2-6.2,5.5-6.6,10.6c-0.4,5.7,2.2,9.7,8,12.2c5.9,2.6,13.8,3,23.5,1C215.9,242.8,223.3,239.9,230.8,236 M191.9,169.4
			L191.9,169.4c3.2-0.8,9-1.8,17.5-3l13,31.6l0.3,0.3l0.4,0l7.4-1.2l0.4-0.2l0.2-0.4l-0.1-0.3l-15.9-38.2l-0.3-0.3l-0.4-0.1
			l-1.8,0.3c-7.6,1-14,2.2-19.3,3.5c-14.1,3.2-25,7.7-32.7,13.3c-7.9,5.7-13.5,13.6-17,23.6v0.4l0.3,0.3l0.4,0.1l0.3-0.3
			c5.5-7.5,12.2-13.8,20.2-18.7C172.7,175.3,181.7,171.7,191.9,169.4 M193.6,162.7L193.6,162.7c5.3-1.3,11.7-2.4,19.3-3.4l1.3-0.2
			l15.3,37l-6.2,1l-13-31.6l-0.3-0.2l-0.3-0.2c-8.9,1.3-14.9,2.3-18.1,3.1c-10.4,2.4-19.6,6-27.5,11c-6.9,4.2-12.8,9.4-17.8,15.6
			c3.4-7.8,8.4-14.2,15-19C169.1,170.3,179.8,165.9,193.6,162.7 M193.7,162.7L193.7,162.7c-13.9,3.2-24.6,7.5-32.3,13.1
			c-6.6,4.8-11.6,11.2-15,19c5-6.2,10.9-11.4,17.8-15.6c7.9-5,17.1-8.6,27.5-11c3.2-0.8,9.2-1.8,18.1-3.1l0.3,0.2l0.3,0.2l13,31.6
			l6.2-1l-15.3-37l-1.3,0.2C205.3,160.3,198.9,161.4,193.7,162.7 M206.4,171.9l-0.4-0.1c-5.3,0.3-10.1,1-14.5,2.1
			c-8.7,2-16.2,4.8-22.4,8.3c-6.8,3.7-12.6,8.3-17.6,13.6c-5.2,5.6-9.3,11.6-12.4,18.1c-3.3,6.5-5.5,13.8-6.7,21.8
			c-1.4,9.6-1.1,18.4,0.9,26.3c2,8.1,5.9,15.3,11.7,21.6c6,6.5,13,10.9,21.1,13.1c8.5,2.3,17.8,2.5,28,0.6
			c8.3-1.7,17.3-5.1,26.9-10.1l0.3-0.2l0.1-0.3l3.5-40.1l-0.1-0.4l-0.3-0.3H224c-5.6,2.5-11.3,4.4-17.1,5.6
			c-11.6,2.5-20.7,1.8-27.4-2v-0.1c-6.6-3.5-9.5-9.1-8.8-16.8c0.7-7.3,3.9-12.9,9.6-16.9c4.5-3.1,11-5.6,19.6-7.5
			c6.2-1.3,12.6-2.1,19.1-2.3l0.3-0.1l0.3-0.3V205l-12.9-32.8L206.4,171.9 M191.8,175c4.2-1,8.7-1.6,13.7-1.9l12.5,31.6
			c-6.3,0.2-12.4,1-18.4,2.3c-8.7,1.9-15.4,4.5-19.9,7.8c-6,4.1-9.4,10-10.2,17.6c-0.7,8.2,2.4,14.2,9.4,18h-0.1
			c7,4,16.4,4.7,28.4,2.2c5.5-1.2,11-2.9,16.3-5.3l-3.3,38.8c-9.4,4.9-18.2,8.2-26.4,9.8c-10,1.9-19.2,1.8-27.4-0.5
			c-7.9-2.3-14.8-6.6-20.6-12.9v0.1c-5.7-6.2-9.5-13.3-11.4-21.2c-1.9-7.8-2.2-16.4-0.8-25.8c1.2-7.8,3.4-14.9,6.6-21.3
			c3-6.3,7.1-12.2,12.3-17.8c4.9-5.3,10.6-9.7,17.3-13.4C175.8,179.7,183.2,177,191.8,175 M205.5,173.1c-5,0.3-9.5,1-13.7,1.9
			c-8.6,2-16,4.7-22.2,8.1c-6.6,3.6-12.4,8.1-17.3,13.4c-5.1,5.6-9.2,11.5-12.3,17.8c-3.2,6.4-5.4,13.5-6.6,21.3
			c-1.4,9.4-1.1,18,0.8,25.8c2,7.9,5.8,15,11.4,21.2v-0.1c5.8,6.3,12.7,10.6,20.6,12.9c8.2,2.2,17.4,2.4,27.4,0.5
			c8.1-1.6,16.9-4.9,26.4-9.8l3.3-38.8c-5.4,2.3-10.8,4.1-16.3,5.3c-11.9,2.5-21.4,1.8-28.4-2.2h0.1c-7-3.8-10.2-9.8-9.4-18
			c0.8-7.7,4.2-13.6,10.2-17.6c4.6-3.2,11.2-5.8,19.9-7.8c6-1.3,12.2-2.1,18.4-2.3L205.5,173.1 M180.8,95.6l-7.4-25.5
			c-0.6-1.9-1.6-2.7-3.1-2.5c-1.2,0-2.4,1.1-3.6,3.1l-14.4,22.8c-1.2,1.8-2.1,4-2.6,6.5c-0.5,2.6-0.5,4.7,0,6.3l6.9,26.3
			c0.5,2.1,1.6,3,3.1,2.9c1.2-0.1,2.5-1.2,3.9-3.2l14.8-23.5v-0.1c1.1-1.8,2-4,2.5-6.6C181.3,99.6,181.2,97.4,180.8,95.6L180.8,95.6
			 M269.1,98.5L269.1,98.5l-7.8,35.9c-0.6,2.7-0.3,4.3,1.1,4.9h0c1.2,0.7,2.9,0.2,5.1-1.6h-0.1l25.7-20.4h0.1c2-1.7,3.9-3.9,5.7-6.7
			c1.9-2.9,3-5.5,3.5-7.8l7.4-36.2c0.6-2.7,0.2-4.3-1.2-4.8c-1.3-0.6-3,0-5.3,2v-0.1L278,84.3v0c-1.9,1.6-3.7,3.8-5.4,6.6
			C270.8,93.6,269.6,96.2,269.1,98.5 M254.5,72c1.3-4.2,1.8-7.7,1.4-10.5l-5.4-43.2c-0.4-3-1.7-4.5-3.8-4.5c-1.9,0-3.9,1.3-6.1,4.1
			l-27,33.8c-2.1,2.7-3.7,5.9-5,9.8c-1.4,3.9-2,7.2-1.7,9.9l4,44.7c0.3,3.4,1.5,5.2,3.6,5.3c1.9,0.3,4-1.1,6.4-3.9l28.3-35.2
			C251.4,79.4,253.2,76,254.5,72 M345.5,308.6c0.4-1-0.3-2.2-1.9-3.8l-17.8-16c-1.6-1.2-3.4-2.3-5.6-3.3c-2.3-1-4.3-1.6-6-1.6
			l-27-1.6c-2.1-0.2-3.3,0.3-3.6,1.4c-0.5,1,0.1,2.3,1.8,3.7h0l17.8,16.3h0c1.6,1.3,3.5,2.4,5.7,3.5c2.3,1,4.4,1.6,6.1,1.6l27,1.3
			C344,310.3,345.2,309.8,345.5,308.6 M332.7,220.3l17.9-8.2c1.5-0.7,2-1.6,1.6-2.7c-0.3-0.9-1.2-1.7-2.8-2.3l-18.1-7.9
			c-1.5-0.7-3.3-1-5.2-1.1h0l-4.3,0.5l-0.2,0.1l-18.5,7.8c-1.6,0.7-2.1,1.6-1.8,2.8l-0.1-0.1c0.1,1,1,1.9,2.8,2.7l18.8,8.1
			c1.4,0.6,3.2,1,5.3,1.1C330,221.1,331.5,220.8,332.7,220.3 M340.6,238.4c-3-0.5-5.5-0.5-7.5,0.1l-32,7.9c-2.6,0.7-3.8,1.8-3.6,3.3
			c0,1.5,1.3,2.9,3.8,4.4l28.8,16.5c2.1,1.3,4.8,2.3,8,2.8l8-0.2l30.6-8.8c2.3-0.6,3.3-1.8,3-3.4v-0.1c-0.2-1.4-1.5-2.7-3.9-4
			l-27.5-15.7C346.2,239.9,343.6,239,340.6,238.4z"/>
	</g>
</g>
<g>
	<g>
		<path class="st1" d="M180.2,390.9l-9.4-43.6c-0.7-3.3-2.1-4.9-4.1-4.8c-1.9,0-3.8,1.6-5.7,4.8l-23,38c-1.8,3-3.1,6.6-4,10.9
			c-0.8,4.2-0.8,7.8-0.1,10.6l10.7,42.1c0.8,3,2.1,4.4,4,4.1c1.8-0.2,3.7-1.8,5.6-5l21.9-36.6c1.7-2.9,2.9-6.3,3.8-10.3
			C180.7,397.2,180.8,393.8,180.2,390.9 M217.3,330c-1.3,0.2-2.5,1.5-3.6,3.7l-11.5,25.4c-0.9,1.9-1.4,4.2-1.6,6.9
			c-0.2,2.6,0.1,4.8,0.9,6.4v0l10.4,24.5c0.8,1.8,1.9,2.5,3.4,2.1c1.3-0.3,2.4-1.5,3.3-3.6l11.1-24.5c0.9-1.9,1.4-4.1,1.6-6.6
			c0.2-2.7,0-4.9-0.6-6.5v0.1l-9.9-25.2l-0.1,0C219.7,330.6,218.6,329.7,217.3,330 M124.5,322.9c-1.3-0.7-2.9,0-4.9,2.2l-22.8,23.6
			c-1.8,1.9-3.4,4.4-4.8,7.4c-1.4,3.1-2.2,5.9-2.4,8.3L87,401.1v0.1c-0.2,2.7,0.4,4.2,1.9,4.5c1.4,0.4,3-0.4,5-2.5l22.3-23.7
			c1.6-1.9,3.1-4.3,4.5-7.3c1.4-3,2.2-5.7,2.4-8l3-36.6C126.4,324.8,125.8,323.2,124.5,322.9 M85.9,261.7c1.6-1.4,2.3-2.6,1.8-3.7
			c-0.3-1.1-1.5-1.5-3.6-1.3l-27.1,0.8c-1.7,0-3.8,0.5-6,1.5c-2.2,0.9-4,1.9-5.5,3.1v0.1l-18.3,15.5c-1.7,1.4-2.3,2.7-2,3.8l-0.1,0
			c0.2,1.2,1.3,1.7,3.4,1.6l27.1-0.6c1.8,0,3.9-0.5,6.2-1.5c2.3-1,4.2-2.1,5.7-3.3L85.9,261.7 M85.1,222c0.2-1.6-0.9-2.8-3.4-3.5
			l-32-8.7l-7.4-0.2c-3,0.5-5.6,1.3-7.8,2.4h0.1L6.5,227c-2.4,1.2-3.7,2.5-3.9,4v0.1c-0.3,1.5,0.6,2.7,2.9,3.4l30.4,9.6l7.9,0.5
			c3.2-0.5,5.9-1.4,8.2-2.7l29.2-15.7C83.8,224.9,85.1,223.4,85.1,222 M53.3,185.5l17.5,8.8c1.2,0.6,2.8,0.9,4.8,0.8
			c1.9,0,3.6-0.3,5.3-0.8l19-7.6c1.7-0.7,2.6-1.6,2.9-2.6c0.4-1.2-0.2-2.1-1.8-2.8L82.7,173c-1.2-0.6-2.7-0.8-4.7-0.8h-0.1l-4.8,0.9
			l-18.7,7.5c-1.6,0.6-2.6,1.4-2.9,2.3C51.2,184,51.8,184.8,53.3,185.5 M195.8,131.8c-10,0.3-20,2.5-30,6.6
			c-10.2,4.2-19.5,10-28.1,17.6c-17,14.6-28.9,33.1-35.5,55.6c-7,23.1-6.6,44.9,1.1,65.4c4,10.8,10,20.1,18,28.1
			c8.1,7.9,17.3,13.6,27.5,16.9c11.5,3.7,23.4,4.4,35.8,2.2c13.1-2.3,25.7-7.8,37.9-16.5c12.4-8.7,22.8-19.7,31.1-33
			c8.2-13.1,13.6-27,16.3-41.6c2.6-14.1,2.4-27.9-0.6-41.2c-2.9-13.5-8.2-24.9-16-34.3C238.7,139.7,219.6,131.1,195.8,131.8
			 M167.2,153.3c8.1-3.2,16.2-4.8,24.4-4.8c18.9,0,34,7.4,45.1,22.1c2.2,2.9,4.1,6,5.8,9.3l0.1,0.1l4.1,10.2v0.1
			c0.8,2.4,1.4,5,2,7.8c2,10.5,1.8,21.3-0.4,32.3c-2.2,11.4-6.4,22.2-12.6,32.3v0c-6.4,10.3-14.4,18.9-24,25.9
			c-9.5,6.8-19.3,11.2-29.5,13.3c-9.6,2-19.1,1.8-28.3-0.7c-8.4-2.4-15.9-6.6-22.4-12.6h-0.1c-2.8-2.6-5.3-5.5-7.5-8.7l-5.3-8.6
			h-0.1l-2.1-4.8c-6.7-16.4-7.3-34.2-1.7-53.3c5.3-18.5,15-33.7,29.1-45.8C151.1,161.3,158.9,156.6,167.2,153.3 M191.6,148.5
			c-8.1,0-16.3,1.6-24.4,4.8c-8.4,3.2-16.1,7.9-23.3,14.1c-14.1,12-23.8,27.3-29.1,45.8c-5.6,19.1-5,36.9,1.7,53.3l2.1,4.8h0.1
			l5.3,8.6c2.2,3.2,4.7,6.1,7.5,8.7h0.1c6.5,6,14,10.2,22.4,12.6c9.2,2.5,18.6,2.7,28.3,0.7c10.2-2.1,20-6.5,29.5-13.3
			c9.6-6.9,17.6-15.5,24-25.9v0c6.3-10.1,10.5-20.9,12.6-32.3c2.2-11,2.4-21.8,0.4-32.3c-0.6-2.7-1.2-5.3-2-7.8v-0.1l-4.1-10.2
			l-0.1-0.1c-1.7-3.3-3.6-6.4-5.8-9.3C225.6,155.9,210.5,148.5,191.6,148.5 M167.6,154.5c8-3.2,16-4.8,23.9-4.8
			c18.5,0,33.2,7.2,44.1,21.6c2.2,2.9,4.1,5.9,5.8,9.1v0.1l4,10.1v0.1l0.1,0.2l1.6,7c1.9,10.3,1.8,20.9-0.3,31.8
			c-2.2,11.2-6.4,21.9-12.5,31.8c-6.4,10.2-14.4,18.8-23.9,25.6c-9.3,6.7-18.9,11.1-28.9,13.1c-9.5,2-18.8,1.8-27.8-0.8
			c-8.1-2.3-15.4-6.5-21.9-12.4c-2.6-2.4-5-5.1-7.2-7.9l-5.1-8.6v0.1l-2.1-4.7c-6.6-16.2-7.2-33.7-1.7-52.4
			c5.3-18.2,14.9-33.3,28.8-45.2C151.8,162.3,159.4,157.7,167.6,154.5 M229.4,219.2l-0.1-0.4l-0.4-0.3l-0.4,0.1
			c-10.1,6.5-20.1,10.8-30,12.9c-8.2,1.8-14.6,1.6-19.3-0.4c-4.4-1.9-6.5-5.2-6.2-9.9c0.2-2.2,0.9-4.4,2.2-6.4l0.1-0.4l-0.1-0.3
			l-0.3-0.2h-0.3c-5.5,1.9-8.5,6-9.1,12.2c-0.5,6.3,2.4,10.8,8.8,13.5c6.1,2.8,14.1,3.2,24.2,1.1c7.3-1.6,14.5-4.3,21.8-8.1
			l-3.2,37.8l0.2,0.5l0.3,0.3l0.4-0.1l7.9-4.1l0.2-0.2l0.1-0.3L229.4,219.2 M220.9,230.9l-0.4,0.1c-7.5,4-14.9,6.8-22.4,8.5
			c-9.7,2-17.6,1.6-23.5-1c-5.8-2.5-8.4-6.5-8-12.2c0.4-5,2.6-8.6,6.6-10.6c-0.8,1.7-1.3,3.5-1.5,5.4v0c-0.4,5.2,1.8,8.9,6.8,11.1
			c4.9,2.3,11.6,2.5,20.1,0.6c9.7-2,19.5-6.2,29.4-12.4l-3.1,45.7c-2.2,1.1-4.4,2.2-6.6,3.4l3.1-37.9l-0.2-0.5
			C221.2,231,221.1,231,220.9,230.9 M220.6,231l0.4-0.1c0.2,0,0.3,0.1,0.3,0.2l0.2,0.5l-3.1,37.9c2.2-1.2,4.4-2.3,6.6-3.4l3.1-45.7
			c-9.9,6.2-19.7,10.4-29.4,12.4c-8.5,1.9-15.2,1.7-20.1-0.6c-5-2.1-7.2-5.8-6.8-11.1v0c0.2-1.8,0.7-3.6,1.5-5.4
			c-4,2-6.2,5.5-6.6,10.6c-0.4,5.7,2.2,9.7,8,12.2c5.9,2.6,13.8,3,23.5,1C205.6,237.8,213.1,234.9,220.6,231 M181.7,164.4
			L181.7,164.4c3.2-0.8,9-1.8,17.5-3l13,31.6l0.3,0.3l0.4,0l7.4-1.2l0.4-0.2l0.2-0.4l-0.1-0.3l-15.9-38.2l-0.3-0.3l-0.4-0.1
			l-1.8,0.3c-7.6,1-14,2.2-19.3,3.5c-14.1,3.2-25,7.7-32.7,13.3c-7.9,5.7-13.5,13.6-17,23.6v0.4l0.3,0.3l0.4,0.1l0.3-0.3
			c5.5-7.5,12.2-13.8,20.2-18.7C162.4,170.3,171.5,166.7,181.7,164.4 M183.4,157.7L183.4,157.7c5.3-1.3,11.7-2.4,19.3-3.4l1.3-0.2
			l15.3,37l-6.2,1l-13-31.6l-0.3-0.2l-0.3-0.2c-8.9,1.3-14.9,2.3-18.1,3.1c-10.4,2.4-19.6,6-27.5,11c-6.9,4.2-12.8,9.4-17.8,15.6
			c3.4-7.8,8.4-14.2,15-19C158.9,165.3,169.6,160.9,183.4,157.7 M183.5,157.7L183.5,157.7c-13.9,3.2-24.6,7.5-32.3,13.1
			c-6.6,4.8-11.6,11.2-15,19c5-6.2,10.9-11.4,17.8-15.6c7.9-5,17.1-8.6,27.5-11c3.2-0.8,9.2-1.8,18.1-3.1l0.3,0.2l0.3,0.2l13,31.6
			l6.2-1l-15.3-37l-1.3,0.2C195.1,155.3,188.7,156.4,183.5,157.7 M196.1,166.9l-0.4-0.1c-5.3,0.3-10.1,1-14.5,2.1
			c-8.7,2-16.2,4.8-22.4,8.3c-6.8,3.7-12.6,8.3-17.6,13.6c-5.2,5.6-9.3,11.6-12.4,18.1c-3.3,6.5-5.5,13.8-6.7,21.8
			c-1.4,9.6-1.1,18.4,0.9,26.3c2,8.1,5.9,15.3,11.7,21.6c6,6.5,13,10.9,21.1,13.1c8.5,2.3,17.8,2.5,28,0.6
			c8.3-1.7,17.3-5.1,26.9-10.1l0.3-0.2l0.1-0.3l3.5-40.1l-0.1-0.4l-0.3-0.3h-0.4c-5.6,2.5-11.3,4.4-17.1,5.6
			c-11.6,2.5-20.7,1.8-27.4-2v-0.1c-6.6-3.5-9.5-9.1-8.8-16.8c0.7-7.3,3.9-12.9,9.6-16.9c4.5-3.1,11-5.6,19.6-7.5
			c6.2-1.3,12.6-2.1,19.1-2.3l0.3-0.1l0.3-0.3V200l-12.9-32.8L196.1,166.9 M181.6,170c4.2-1,8.7-1.6,13.7-1.9l12.5,31.6
			c-6.3,0.2-12.4,1-18.4,2.3c-8.7,1.9-15.4,4.5-19.9,7.8c-6,4.1-9.4,10-10.2,17.6c-0.7,8.2,2.4,14.2,9.4,18h-0.1
			c7,4,16.4,4.7,28.4,2.2c5.5-1.2,11-2.9,16.3-5.3l-3.3,38.8c-9.4,4.9-18.2,8.2-26.4,9.8c-10,1.9-19.2,1.8-27.4-0.5
			c-7.9-2.3-14.8-6.6-20.6-12.9v0.1c-5.7-6.2-9.5-13.3-11.4-21.2c-1.9-7.8-2.2-16.4-0.8-25.8c1.2-7.8,3.4-14.9,6.5-21.3
			c3-6.3,7.1-12.2,12.3-17.8c4.9-5.3,10.6-9.7,17.3-13.4C165.6,174.7,173,172,181.6,170 M195.3,168.1c-5,0.3-9.5,1-13.7,1.9
			c-8.6,2-16,4.7-22.2,8.1c-6.6,3.6-12.4,8.1-17.3,13.4c-5.1,5.6-9.2,11.5-12.3,17.8c-3.2,6.4-5.3,13.5-6.5,21.3
			c-1.4,9.4-1.1,18,0.8,25.8c2,7.9,5.8,15,11.4,21.2v-0.1c5.8,6.3,12.7,10.6,20.6,12.9c8.2,2.2,17.4,2.4,27.4,0.5
			c8.1-1.6,16.9-4.9,26.4-9.8l3.3-38.8c-5.4,2.3-10.8,4.1-16.3,5.3c-11.9,2.5-21.4,1.8-28.4-2.2h0.1c-7-3.8-10.2-9.8-9.4-18
			c0.8-7.7,4.2-13.6,10.2-17.6c4.6-3.2,11.2-5.8,19.9-7.8c6-1.3,12.2-2.1,18.4-2.3L195.3,168.1 M170.6,90.6l-7.4-25.5
			c-0.6-1.9-1.6-2.7-3.1-2.5c-1.2,0-2.4,1.1-3.6,3.1l-14.4,22.8c-1.2,1.8-2.1,4-2.6,6.5c-0.5,2.6-0.5,4.7,0,6.3l6.9,26.3
			c0.5,2.1,1.6,3,3.1,2.9c1.2-0.1,2.5-1.2,3.9-3.2l14.8-23.5v-0.1c1.1-1.8,2-4,2.5-6.6C171.1,94.6,171,92.4,170.6,90.6L170.6,90.6
			 M258.8,93.5L258.8,93.5l-7.8,36c-0.6,2.7-0.3,4.3,1.1,4.9h0c1.2,0.7,2.9,0.2,5.1-1.6h-0.1l25.7-20.4h0.1c2-1.7,3.9-3.9,5.7-6.7
			c1.9-2.9,3-5.5,3.5-7.8l7.4-36.2c0.6-2.7,0.2-4.3-1.2-4.8c-1.3-0.6-3,0-5.3,2v-0.1l-25.3,20.6v0c-1.9,1.6-3.7,3.8-5.4,6.6
			C260.6,88.6,259.4,91.2,258.8,93.5 M244.3,67c1.3-4.2,1.8-7.7,1.4-10.5l-5.4-43.2c-0.4-3-1.7-4.5-3.8-4.5c-1.9,0-3.9,1.3-6.1,4.1
			l-27,33.8c-2.1,2.7-3.7,5.9-5,9.8c-1.4,3.9-2,7.2-1.7,9.9l4,44.7c0.3,3.4,1.5,5.2,3.6,5.3c1.9,0.3,4-1.1,6.4-3.9l28.3-35.2
			C241.2,74.4,243,71,244.3,67 M335.2,303.6c0.4-1-0.3-2.2-1.9-3.8l-17.8-16c-1.6-1.2-3.4-2.3-5.6-3.3c-2.3-1-4.3-1.6-6-1.6l-27-1.6
			c-2.1-0.2-3.3,0.3-3.6,1.4c-0.5,1,0.1,2.3,1.8,3.7h0l17.8,16.3h0c1.6,1.3,3.5,2.4,5.7,3.5c2.3,1,4.4,1.6,6.1,1.6l27,1.3
			C333.8,305.3,334.9,304.8,335.2,303.6 M322.5,215.3l17.9-8.2c1.5-0.7,2-1.6,1.6-2.7c-0.3-0.9-1.2-1.7-2.8-2.3l-18.1-7.9
			c-1.5-0.7-3.3-1-5.2-1.1h0l-4.3,0.5l-0.2,0.1l-18.5,7.8c-1.6,0.7-2.1,1.6-1.8,2.8l-0.1-0.1c0.1,1,1,1.9,2.8,2.7l18.8,8.1
			c1.4,0.6,3.2,1,5.3,1.1C319.7,216.1,321.3,215.8,322.5,215.3 M330.4,233.4c-3-0.5-5.5-0.5-7.5,0.1l-32,7.9
			c-2.6,0.7-3.8,1.8-3.6,3.3c0,1.5,1.3,2.9,3.8,4.4l28.8,16.5c2.1,1.3,4.8,2.3,8,2.8l8-0.2l30.6-8.8c2.3-0.6,3.3-1.8,3-3.3v-0.1
			c-0.2-1.4-1.5-2.7-3.9-4l-27.5-15.8C336,234.9,333.4,234,330.4,233.4z"/>
	</g>
</g>
<g>
	<g>
		<path class="st2" d="M290.8,249.3l28.8,16.5c2.1,1.3,4.8,2.3,8,2.8l8-0.2l30.6-8.8c2.3-0.6,3.3-1.8,3-3.4v-0.1
			c-0.2-1.4-1.5-2.7-3.9-4l-27.5-15.8c-2.1-1.2-4.7-2.1-7.7-2.7c-3-0.5-5.5-0.5-7.5,0.1l-32,7.9c-2.6,0.7-3.8,1.8-3.6,3.3
			C287,246.5,288.3,247.9,290.8,249.3z M290.7,204.5c0.1,1,1,1.9,2.8,2.7l18.8,8.1c1.4,0.6,3.2,1,5.3,1.1c1.9,0,3.4-0.2,4.6-0.8
			l17.9-8.2c1.5-0.7,2-1.6,1.6-2.7c-0.3-0.9-1.2-1.7-2.8-2.3l-18.1-7.9c-1.5-0.7-3.3-1-5.2-1.1h0l-4.3,0.5L311,194l-18.5,7.8
			c-1.6,0.7-2.1,1.6-1.8,2.8L290.7,204.5z M303.7,279.3l-27-1.6c-2.1-0.2-3.3,0.3-3.6,1.4c-0.5,1,0.1,2.3,1.8,3.7h0l17.8,16.3h0
			c1.6,1.3,3.5,2.4,5.7,3.5c2.3,1,4.4,1.6,6.1,1.6l27,1.3c2,0.2,3.2-0.3,3.5-1.5c0.4-1-0.3-2.2-1.9-3.8l-17.8-16
			c-1.6-1.2-3.4-2.3-5.6-3.3C307.4,279.9,305.4,279.4,303.7,279.3z M245.3,56.7l-5.4-43.2c-0.4-3-1.7-4.5-3.8-4.5
			c-1.9,0-3.9,1.3-6.1,4.1L203,47c-2.1,2.7-3.7,5.9-5,9.8c-1.4,3.9-2,7.2-1.7,9.9l4,44.7c0.3,3.4,1.5,5.2,3.6,5.3
			c1.9,0.3,4-1.1,6.4-3.9l28.3-35.2c2.3-2.7,4.1-6.1,5.4-10.2C245.3,63.1,245.7,59.6,245.3,56.7z M298,57.1c-1.3-0.6-3,0-5.3,2V59
			l-25.3,20.6v0c-1.9,1.6-3.7,3.8-5.4,6.6c-1.7,2.8-2.9,5.3-3.5,7.6h0l-7.7,36c-0.6,2.7-0.3,4.3,1.1,4.9h0c1.2,0.7,2.9,0.2,5.1-1.6
			h-0.1l25.7-20.4h0.1c2-1.7,3.9-3.9,5.7-6.7c1.9-2.9,3-5.5,3.5-7.8l7.4-36.2C299.8,59.2,299.4,57.6,298,57.1z M159.8,62.9
			c-1.2,0-2.4,1.1-3.6,3.1l-14.4,22.8c-1.2,1.8-2.1,4-2.6,6.5c-0.5,2.6-0.5,4.7,0,6.3l6.9,26.4c0.5,2.1,1.6,3,3.1,2.9
			c1.2-0.1,2.5-1.2,3.9-3.2l14.8-23.5v-0.1c1.1-1.8,2-4,2.5-6.6c0.4-2.6,0.3-4.7-0.1-6.5v0l-7.4-25.5
			C162.3,63.5,161.3,62.7,159.8,62.9z M252.8,157.8c-14.5-17.8-33.6-26.4-57.3-25.8c-10,0.3-20,2.5-30,6.6
			c-10.2,4.2-19.5,10-28.1,17.6c-17,14.6-28.9,33.1-35.5,55.6c-7,23.1-6.6,44.9,1.1,65.4c4,10.8,10,20.1,18,28.1
			c8.1,7.9,17.3,13.6,27.6,16.9c11.5,3.7,23.4,4.4,35.8,2.2c13.1-2.3,25.7-7.8,37.9-16.5c12.4-8.7,22.8-19.7,31.1-33
			c8.2-13.1,13.6-27,16.2-41.6c2.6-14.1,2.4-27.9-0.6-41.2C265.9,178.7,260.6,167.2,252.8,157.8z M212.8,192.4l-13-31.6l-0.3-0.2
			l-0.3-0.2c-8.9,1.3-14.9,2.3-18.1,3.1c-10.4,2.4-19.6,6-27.5,11c-6.9,4.2-12.8,9.4-17.8,15.6c3.4-7.8,8.4-14.2,15-19
			c7.7-5.6,18.4-9.9,32.2-13.1h0.1c5.2-1.3,11.6-2.4,19.2-3.4l1.3-0.2l15.3,37L212.8,192.4z M195,168.4l12.5,31.6
			c-6.3,0.2-12.4,1-18.4,2.3c-8.7,1.9-15.4,4.5-19.9,7.8c-6,4.1-9.4,10-10.2,17.6c-0.7,8.2,2.4,14.2,9.4,18h-0.1
			c7,4,16.4,4.7,28.4,2.2c5.5-1.2,11-2.9,16.3-5.3l-3.3,38.8c-9.4,4.9-18.2,8.2-26.4,9.8c-10,1.9-19.2,1.8-27.4-0.5
			c-7.9-2.3-14.8-6.6-20.6-12.9v0.1c-5.7-6.2-9.5-13.3-11.5-21.2c-1.9-7.8-2.2-16.4-0.8-25.8c1.2-7.8,3.4-14.9,6.6-21.3
			c3-6.3,7.1-12.2,12.3-17.8c4.9-5.3,10.6-9.7,17.3-13.4c6.2-3.5,13.6-6.2,22.2-8.1C185.5,169.4,190,168.7,195,168.4z M246.3,190.5
			l-4.1-10.2l-0.1-0.1c-1.7-3.3-3.6-6.4-5.8-9.3c-11.1-14.8-26.2-22.2-45.1-22.1c-8.1,0-16.3,1.6-24.4,4.8
			c-8.4,3.2-16.1,7.9-23.3,14.1c-14.1,12-23.8,27.3-29.2,45.8c-5.6,19.1-5,36.9,1.7,53.3l2.1,4.8h0.1l5.3,8.6
			c2.2,3.2,4.7,6.1,7.5,8.7h0.1c6.5,6,14,10.2,22.4,12.6c9.2,2.5,18.6,2.7,28.3,0.7c10.2-2.1,20-6.5,29.5-13.3
			c9.6-6.9,17.6-15.5,24-25.9v0c6.3-10.1,10.5-20.9,12.6-32.3c2.2-11,2.4-21.8,0.4-32.3c-0.6-2.7-1.2-5.3-2-7.8V190.5z M72.8,173.4
			l-18.6,7.5c-1.6,0.6-2.6,1.4-2.9,2.3c-0.4,1,0.1,1.9,1.7,2.6l17.4,8.8c1.2,0.6,2.8,0.9,4.8,0.8c1.9,0,3.6-0.3,5.3-0.8l19-7.6
			c1.7-0.7,2.6-1.6,2.9-2.6c0.4-1.2-0.2-2.1-1.8-2.8l-18.2-8.4c-1.2-0.6-2.7-0.8-4.7-0.8h-0.1L72.8,173.4z M34.3,212.3l-28.1,15
			c-2.4,1.2-3.7,2.5-3.9,4v0.1c-0.3,1.5,0.6,2.7,2.9,3.4l30.4,9.6l7.9,0.5c3.2-0.5,5.9-1.4,8.2-2.7L81,226.5
			c2.5-1.4,3.8-2.8,3.8-4.3c0.2-1.6-0.9-2.8-3.4-3.5l-32-8.7l-7.4-0.2C39,210.4,36.4,211.2,34.3,212.3L34.3,212.3z M87.5,258.3
			c-0.3-1.1-1.5-1.5-3.6-1.3l-27.1,0.8c-1.7,0-3.8,0.5-6,1.5c-2.2,0.9-4,1.9-5.5,3.1v0.1L27,278c-1.7,1.4-2.3,2.7-2,3.8l-0.1,0
			c0.2,1.2,1.3,1.7,3.4,1.6l27.1-0.6c1.8,0,3.9-0.5,6.2-1.5c2.3-1,4.2-2.1,5.7-3.3l18.2-16C87.3,260.6,87.9,259.4,87.5,258.3z
			 M124.2,323.2c-1.3-0.7-2.9,0-4.9,2.2L96.5,349c-1.8,1.9-3.4,4.4-4.8,7.4c-1.4,3.1-2.2,5.9-2.4,8.3l-2.6,36.8v0.1
			c-0.2,2.7,0.4,4.2,1.9,4.5c1.4,0.4,3-0.4,5-2.5l22.3-23.7c1.6-1.9,3.1-4.3,4.5-7.3c1.4-3,2.2-5.7,2.4-8l3-36.6
			C126.1,325.1,125.5,323.6,124.2,323.2z M220.3,231.3c-7.5,4-14.9,6.8-22.4,8.5c-9.7,2-17.6,1.6-23.5-1c-5.8-2.5-8.4-6.5-8-12.2
			c0.4-5,2.6-8.6,6.6-10.6c-0.8,1.7-1.3,3.5-1.5,5.4v0c-0.4,5.2,1.8,8.9,6.8,11.1c4.9,2.3,11.6,2.5,20.1,0.6
			c9.7-2,19.5-6.2,29.4-12.4l-3.1,45.7c-2.2,1.1-4.4,2.2-6.6,3.4l3.1-37.9l-0.2-0.5c-0.1-0.1-0.2-0.2-0.3-0.2L220.3,231.3z
			 M201.9,359.4c-0.9,1.9-1.4,4.2-1.6,6.9c-0.2,2.6,0.1,4.8,0.9,6.4v0l10.4,24.5c0.8,1.8,1.9,2.5,3.4,2.1c1.3-0.3,2.4-1.5,3.3-3.6
			l11.1-24.5c0.9-1.9,1.4-4.1,1.6-6.6c0.2-2.7,0-4.9-0.6-6.5v0.1l-9.9-25.2l-0.1,0c-0.9-2-2-2.9-3.3-2.6c-1.3,0.2-2.5,1.5-3.6,3.7
			L201.9,359.4z M166.4,342.8c-1.9,0-3.8,1.6-5.7,4.8l-23,38c-1.8,3-3.1,6.6-4,10.9c-0.8,4.2-0.8,7.8-0.1,10.6l10.7,42.1
			c0.8,3,2.1,4.4,4,4.1c1.8-0.2,3.7-1.8,5.6-5l21.9-36.6c1.7-2.9,2.9-6.3,3.8-10.3c0.8-4,0.9-7.4,0.3-10.2l-9.4-43.6
			C169.8,344.3,168.4,342.7,166.4,342.8z"/>
	</g>
</g>
</svg>
